Coordinates
version=1
nRows=16
nColumns=36
inDegrees=yes

Units are S.I. units (second, meters, Newtons, ...)
If the header above contains a line with 'inDegrees', this indicates whether rotational values are in degrees (yes) or radians (no).

endheader
time	pelvis_tilt	pelvis_list	pelvis_rotation	pelvis_tx	pelvis_ty	pelvis_tz	hip_flexion_r	hip_adduction_r	hip_rotation_r	knee_angle_r	knee_angle_r_beta	ankle_angle_r	subtalar_angle_r	mtp_angle_r	hip_flexion_l	hip_adduction_l	hip_rotation_l	knee_angle_l	knee_angle_l_beta	ankle_angle_l	subtalar_angle_l	mtp_angle_l	lumbar_extension	lumbar_bending	lumbar_rotation	arm_flex_r	arm_add_r	arm_rot_r	elbow_flex_r	pro_sup_r	arm_flex_l	arm_add_l	arm_rot_l	elbow_flex_l	pro_sup_l
      0.00000000	      2.13276679	     -4.94763183	     92.89831502	      1.52029188	      0.90474012	     -0.17404720	      7.21953400	      5.52064996	      4.15361699	      4.20640023	      0.07341553	      3.27052314	     -3.68067217	     -6.31966708	      8.16776672	     -1.65838617	     -4.95289447	      4.04107581	      0.07053008	     -3.26911670	    -12.34031042	     -6.31966708	     -5.32213140	      5.32421350	     -2.92999414	      7.86005140	     -9.11153189	     25.46806539	     26.50217505	     69.91664355	     11.10518875	     -3.63306916	     34.39552023	     26.24516570	     64.29327826
      0.01666670	      1.30000967	     -4.10447867	     92.23442585	      1.52042988	      0.90482402	     -0.17370507	      6.22067380	      4.85209022	      5.42139062	      3.66440784	      0.06395598	      4.81775432	     -3.27283127	     -6.47090530	      6.80722949	     -0.99506616	     -5.67826120	      3.92812434	      0.06855870	     -4.04728754	    -11.31811281	     -6.47090530	     -7.06662636	      5.02552455	     -2.77289719	      8.11987521	     -9.55101530	     26.27900659	     28.50388185	     69.70188659	     11.61729572	     -4.25264646	     35.34961735	     27.56201282	     64.72247026
      0.03333330	      1.23448582	     -4.16743512	     91.92142237	      1.52062546	      0.90349170	     -0.17400304	      6.00984065	      4.88382384	      5.15404923	      2.80571452	      0.04896896	      5.32056491	     -1.85957178	     -6.66925250	      6.46806455	     -0.80318585	     -6.19011866	      3.12817469	      0.05459695	     -4.02396786	     -9.49669941	     -6.66925250	     -6.86715596	      5.20853958	     -2.56447954	      8.85875851	    -10.32808313	     31.31439561	     28.24556995	     72.15727523	     12.41863676	     -4.74019490	     40.21657301	     26.74246136	     67.30567947
      0.05000000	      1.18943423	     -3.99299526	     91.67314476	      1.52143859	      0.90410632	     -0.17404846	      5.57679820	      4.90282291	      5.76239822	      2.12222693	      0.03703985	      5.45569314	     -2.19402079	     -7.01257524	      5.89910167	     -0.81924277	     -6.37173640	      2.33901185	      0.04082346	     -4.03420464	     -9.09062192	     -7.01257524	     -7.20847364	      5.27849877	     -2.49453114	      9.40482048	    -10.97333858	     34.35027682	     28.81555895	     71.69214346	     12.97569091	     -5.09092777	     43.05223878	     26.31290205	     67.61599675
      0.06666670	      1.15738441	     -4.11797537	     91.50531442	      1.52175685	      0.90400362	     -0.17462041	      5.45213456	      4.91968101	      6.06335381	      1.69194963	      0.02953009	      5.38826021	     -1.94479651	     -7.25769865	      5.81426590	     -0.82430394	     -6.02728019	      1.96460496	      0.03428882	     -4.40274804	     -9.81741889	     -7.25769865	     -7.04485601	      5.33572357	     -2.49223627	      9.81679861	    -11.30423472	     36.82861810	     28.71731763	     72.45665432	     13.37561755	     -5.15660798	     45.67977345	     25.48070237	     68.16706240
      0.08333330	      1.13558533	     -4.09355024	     91.28530264	      1.52207348	      0.90541043	     -0.17489748	      5.21992619	      4.93095544	      6.69019607	      1.41653386	      0.02472318	      4.91915440	     -2.24303863	     -7.44504636	      5.67205850	     -0.83766115	     -5.90108451	      1.73678546	      0.03031262	     -4.56992349	     -9.91571553	     -7.44504636	     -7.17268149	      5.38930565	     -2.24150657	      9.57815565	    -11.34206885	     35.30484621	     29.20826200	     79.40724694	     13.67608919	     -4.89851461	     46.46313168	     25.01923656	     70.53566732
      0.10000000	      1.03521273	     -4.09209436	     91.19707960	      1.52202685	      0.90550858	     -0.17563537	      5.05361099	      4.81993243	      7.22816288	      1.26039841	      0.02199810	      4.36563292	     -2.57138152	     -7.47669271	      5.53434207	     -0.72919835	     -5.30967063	      1.59643639	      0.02786307	     -4.99359700	    -10.68760826	     -7.47669271	     -7.18331413	      5.33755665	     -2.31187960	      9.87558826	    -11.54657993	     37.86505621	     29.25818465	     75.85024778	     13.99254136	     -4.71898500	     48.72508570	     24.68046960	     68.21187481
      0.11666670	      1.00319921	     -4.00600771	     91.14318835	      1.52234932	      0.90567180	     -0.17614507	      4.83526577	      4.77335863	      7.64120388	      1.14990164	      0.02006957	      3.93475510	     -2.80171552	     -7.49242117	      5.32711617	     -0.67287746	     -4.99315468	      1.51796979	      0.02649357	     -5.19650961	    -10.96979774	     -7.49242117	     -7.31000163	      5.31946205	     -2.05665620	      9.44363644	    -11.48020332	     35.74904189	     29.61943746	     81.63610938	     14.25228583	     -4.37535415	     49.11481511	     24.48743673	     69.88230160
      0.13333330	      0.99892598	     -3.88860533	     91.17065574	      1.52275188	      0.90577700	     -0.17602062	      4.63422767	      4.74999250	      7.97544005	      1.07227582	      0.01871474	      3.60551842	     -3.02734180	     -7.49732677	      5.10881962	     -0.65163368	     -4.60732704	      1.44309026	      0.02518668	     -5.56155500	    -11.59137854	     -7.49732677	     -7.52192751	      5.32264886	     -1.95353309	      9.27239101	    -11.45478175	     35.00215137	     29.83928483	     82.84848033	     14.41976718	     -4.18232158	     49.27279380	     24.50215126	     69.89522674
      0.15000000	      1.04376703	     -3.80702975	     91.18802211	      1.52327299	      0.90594171	     -0.17530075	      4.52294521	      4.79032557	      8.36183418	      1.03624777	      0.01808594	      3.34717685	     -3.36725814	     -7.49932409	      4.99126169	     -0.68371703	     -4.22976115	      1.39118149	      0.02428070	     -5.81447242	    -12.15344290	     -7.49932409	     -7.64415940	      5.32832089	     -1.88178404	      9.11627754	    -11.35947461	     34.29546268	     29.98882535	     83.80602793	     14.54986510	     -4.05795520	     49.39091686	     24.51790521	     69.92618658
      0.16666670	      1.07270283	     -3.50611587	     91.21548462	      1.52390389	      0.90620338	     -0.17521716	      4.18281098	      4.84143199	      8.66559577	      0.97750805	      0.01706073	      3.20105344	     -3.63378630	     -7.49975901	      4.64648094	     -0.71949463	     -3.86433513	      1.31082553	      0.02287822	     -6.01068027	    -12.59061342	     -7.49975901	     -8.07472636	      5.33434186	     -2.01583486	      9.45014287	    -11.41010712	     36.15801913	     30.05677351	     77.96063883	     14.59669146	     -4.15289051	     49.43568966	     25.02295954	     67.07268221
      0.18333330	      1.08285336	     -3.56005926	     91.28037524	      1.52435432	      0.90683808	     -0.17589038	      4.23094368	      4.87179114	      8.85302531	      0.95664296	      0.01669657	      3.09643151	     -3.81035897	     -7.49995507	      4.70892120	     -0.74434964	     -3.56909465	      1.28828693	      0.02248485	     -6.30327943	    -13.02449209	     -7.49995507	     -8.05587958	      5.29353269	     -1.76612823	      8.83730503	    -11.05724937	     32.32935691	     30.16877217	     85.47966569	     14.73341527	     -3.88317881	     48.67770456	     24.74276353	     70.12540648
      0.20000000	      1.09104490	     -3.37384312	     91.29475888	      1.52457033	      0.90825861	     -0.17635432	      3.99641609	      4.91071243	      9.05535902	      0.89870710	      0.01568540	      2.97981157	     -3.91079010	     -7.49999278	      4.47546297	     -0.78563606	     -3.44173950	      1.23720137	      0.02159324	     -6.74667234	    -13.43202585	     -7.49999278	     -8.30381569	      5.29476284	     -1.73469732	      8.74672664	    -10.92122476	     31.52244583	     30.19289150	     85.85973109	     14.80962824	     -3.80179166	     48.36637133	     24.80657269	     70.48445624
      0.21666670	      1.12455018	     -3.25419296	     91.29998212	      1.52485180	      0.91018553	     -0.17653641	      3.83799768	      4.98005485	      9.23337232	      0.83060572	      0.01449680	      2.75584209	     -4.05731399	     -7.49999786	      4.32020722	     -0.86319039	     -3.49600558	      1.21293771	      0.02116976	     -7.29565147	    -13.74790498	     -7.49999786	     -8.41232957	      5.33470091	     -1.86054222	      8.97454255	    -10.88384819	     32.56058286	     29.80629321	     83.57608183	     14.91558819	     -3.68920665	     48.56514173	     24.64015779	     69.64507373
      0.23333330	      1.17738114	     -3.01613347	     91.24259222	      1.52463176	      0.91055166	     -0.17675858	      3.53578638	      5.05203287	      9.43790147	      0.74965383	      0.01308393	      2.55666062	     -4.04423460	     -7.49999964	      4.02020154	     -0.94117773	     -3.45559629	      1.16537080	      0.02033956	     -8.03389634	    -14.43835905	     -7.49999964	     -8.78672490	      5.43392485	     -1.66970113	      8.66153109	    -10.72484694	     30.18946803	     30.12678386	     86.18598356	     15.02545216	     -3.44051752	     47.75474073	     24.78762099	     70.71394186
      0.25000000	      1.21679323	     -2.79246845	     91.25810667	      1.52420744	      0.91030918	     -0.17662615	      3.27043673	      5.10507319	      9.41672003	      0.69522623	      0.01213399	      2.48049083	     -3.88422047	     -7.49999978	      3.78544023	     -0.98411822	     -3.45410875	      1.17771500	      0.02055500	     -8.52083280	    -14.86431503	     -7.49999978	     -9.04563302	      5.54677835	     -1.80684303	      8.84958705	    -10.74484973	     30.67496211	     29.95202064	     84.50457149	     15.16485364	     -3.26682100	     47.85233804	     24.72290757	     70.52853031
